<svg xmlns="http://www.w3.org/2000/svg" xmlns:xlink="http://www.w3.org/1999/xlink" xmlns:v="http://vecta.io" width="17" height="23" viewBox="0 0 17 23" ><style><![CDATA[svg {stroke:#000;stroke-linecap:round;stroke-linejoin:round;fill:#fff;fill-rule:evenodd;font-family:Arial;font-size:14px;text-anchor:middle}svg text {stroke:none}]]></style><g transform="translate(0.5 0.5)"><g transform="translate(0.9657335 3.9691416)"><path d="M 0 0 L 1.1062337 14.6900383 C 1.21179 16.0623472 2.3560107 17.1432999 3.6691303 17.1432999 L 10.3951822 17.1432999 C 11.708293 17.1432999 12.8525269 16.0623472 12.9580832 14.6900383 L 14.0685392 0 L 0 0 Z M 4.2518095 15.234735 C 4.2644718 15.5345361 4.0364748 15.7709911 3.7451396 15.7709911 C 3.4537956 15.7709911 3.2089095 15.5303092 3.1920249 15.234735 L 2.5755721 2.7108378 C 2.5544608 2.3054745 2.8162447 1.9761203 3.1582381 1.9761203 C 3.5002403 1.9761203 3.787362 2.3054745 3.804251 2.7108378 L 4.2518095 15.234735 Z M 7.5620529 15.234735 C 7.5620529 15.5345361 7.3213759 15.7709911 7.0342718 15.7709911 C 6.74715 15.7709911 6.5064906 15.5303092 6.5064906 15.234735 L 6.4220456 2.7108378 C 6.417819 2.3054745 6.6922652 1.9761203 7.0342718 1.9761203 C 7.376274 1.9761203 7.6507202 2.3054745 7.6464979 2.7108378 L 7.5620529 15.234735 Z M 10.872292 15.234735 C 10.8596297 15.5345361 10.6105082 15.7709911 10.319173 15.7709911 C 10.0278421 15.7709911 9.8040673 15.5303092 9.812503 15.234735 L 10.2600659 2.7108378 C 10.2727282 2.3054745 10.5640722 1.9761203 10.9060656 1.9761203 C 11.2480722 1.9761203 11.5098561 2.3054745 11.4887448 2.7108378 L 10.872292 15.234735 Z" stroke="none" fill="#000000"/></g><g transform="translate(0 1.6214357)"><path d="M 15.9927188 1.6214335 L 0.0072785 1.6214335 L 0.0072785 1.6214335 C -0.0687176 0.7304928 0.4590635 0 1.1852948 0 L 14.8189379 0 C 15.5409425 0 16.0687237 0.7347108 15.9927188 1.6214335 L 15.9927188 1.6214335 Z" stroke="none" fill="#000000"/></g><g transform="translate(5.1065052 0)"><path d="M 5.7772875 2.2210269 L 0.009695 2.2210269 L 0.0012593 1.8916728 C -0.0325275 0.8571652 0.6177077 0 1.4537086 0 L 4.3375005 0 C 5.169288 0 5.81951 0.8571652 5.7899631 1.8874547 L 5.7772875 2.2210269 Z" stroke="none" fill="#000000"/></g></g></svg>