<svg xmlns="http://www.w3.org/2000/svg" xmlns:xlink="http://www.w3.org/1999/xlink" xmlns:v="http://vecta.io" width="26" height="26" viewBox="0 0 26 26" ><style><![CDATA[svg{stroke:#000;stroke-linecap:round;stroke-linejoin:round;fill:#fff;fill-rule:evenodd;font-family:Roboto;font-size:14px;text-anchor:middle} svg text{stroke:none}]]></style><g transform="translate(1.5 1.5)" stroke="#5f6368" fill="#5f6368"><g transform="translate(6.3322 7.6883)"><path d="M 0 0 L 11.1213 0 L 11.1213 1.9782 L 0 1.9782 Z" fill="#5f6368" stroke="#5f6368"/></g><g transform="translate(6.3322 11.5005)"><path d="M 0 0 L 11.1213 0 L 11.1213 1.9782 L 0 1.9782 Z" fill="#5f6368" stroke="#5f6368"/></g><g transform="translate(6.3322 15.2414)"><path d="M 0 0 L 11.1213 0 L 11.1213 1.9782 L 0 1.9782 Z" fill="#5f6368" stroke="#5f6368"/></g><g><path d="M 18.9756 0 L 3.3249 0 C 1.485 0 0 1.43 0 3.2016 L 0 20.7984 C 0 22.57 1.485 24 3.3249 24 L 20.6751 24 C 22.515 24 24 22.57 24 20.7984 L 24 4.7746 L 18.9756 0 Z M 20.6751 22.0933 L 3.3249 22.0933 C 2.6153 22.0933 2.046 21.5452 2.046 20.7984 L 2.046 3.2016 C 2.046 2.5184 2.6153 1.9702 3.3249 1.9702 L 17.9113 1.9702 L 17.9113 5.9266 L 21.9457 5.9266 L 21.9457 20.862 C 21.9457 21.5452 21.3847 22.0933 20.6751 22.0933 Z" fill="#5f6368" stroke="#5f6368"/></g></g></svg>