<svg xmlns="http://www.w3.org/2000/svg" xmlns:xlink="http://www.w3.org/1999/xlink" xmlns:v="http://vecta.io" width="1024" height="720" viewBox="0 0 1024 720" ><style><![CDATA[svg{stroke:#000;stroke-linecap:round;stroke-linejoin:round;fill:#fff;fill-rule:evenodd;font-family:Roboto;font-size:14px;text-anchor:middle}svg text{stroke:none}]]></style><defs><g id="thick.end"><path d="M 0 0 L 4 5 L -4 5 Z" stroke="none"/></g></defs><g transform="translate(105.5 255.5)"><g transform="translate(96.3027692 27.9322367)"><path d="M 35.8572916 7.1317949 C 33.6193254 -0.9265939 15.78912 -8.0415297 8.5181454 20.6286532 C 1.2481533 49.2993648 4.9091037 59.3445918 0.8972378 69.4671914 C -3.1141367 79.5904961 6.3527204 157.9208832 28.7412241 157.665853 C 52.6974667 157.3882632 57.915676 82.4652693 53.1510532 67.2919446 C 48.3870854 52.11862 52.5633558 7.1092352 35.8572916 7.1317949 Z" fill="#605343" stroke="none"/></g><g transform="translate(0 130.2831205)"><path d="M 112.9543276 0 C 112.5829435 0.6214487 76.2930791 1.2430737 75.8907463 1.8645224 C 64.4950823 19.3690729 39.86894 27.0277323 20.2749873 31.7451733 C 0.6808709 36.4624379 0.0417562 63.0682337 0 80.8279906 L 190 80.8279906 C 190 63.0682337 189.6079834 36.5292357 169.7251764 31.7451733 C 149.8425332 26.9611108 123.7719554 18.2923769 112.9543276 0 Z" fill="#29b6f6" stroke="none"/></g><g transform="translate(41.350562 2.7249252)"><path fill="#f5d5c1" d="M 72.6863824 115.203212 L 72.6863824 140.3671877 C 61.2702324 161.9117165 44.1515491 161.3677886 34.6125991 140.3671877 L 34.6125991 115.1345811 C 27.9307723 109.3277459 21.1490813 101.1707157 15.9624102 91.323317 C 15.3994824 92.3656784 14.6454991 93.1537565 13.7080602 93.603951 C 9.8719602 95.4466349 4.5298991 90.9291724 1.7042824 83.5032313 C -1.1212287 76.0775012 -0.3680898 68.5298544 3.4783546 66.7316094 C 4.7969546 66.0931037 6.3038657 66.2183982 7.8276657 66.9636206 C 3.6648713 37.3472559 18.8320435 0 53.6907102 0 C 88.5416713 0 103.709688 37.3316337 99.5557602 66.9451484 C 101.0643602 66.2174482 102.5551213 66.0993315 103.8612657 66.731715 C 107.6666491 68.52996 108.4712991 76.0778179 105.6456824 83.5034424 C 102.8200657 90.929278 97.4780046 95.4467405 93.6417991 93.6041621 C 92.7118546 93.1575565 91.9630435 92.3775007 91.4023324 91.3463281 C 86.1957012 101.2222818 79.3872521 109.3966094 72.6863824 115.203212 Z" stroke="none" fill-opacity="1" stroke-opacity="1" stroke-width="1px"/></g><g transform="translate(44.6016347 0)"><path d="M 41.5811057 40.3975526 C 32.2996132 61.2319473 28.597398 67.3812231 16.3255098 61.8865306 C 4.0534579 56.3923669 6.3844338 71.798867 8.6114287 82.7986505 C -2.2581077 67.9471538 -0.9793868 53.8394217 2.4236579 39.5097939 C 6.1265282 23.7925694 24.8228053 -0.1161107 42.3541677 0.3167532 C 51.8834134 -0.7932536 66.3002579 0.5164417 81.6354103 12.4043364 C 108.4481014 33.1826844 99.4759319 79.8572558 92.2570297 85.3514195 C 99.2494662 42.1180808 82.1300979 50.9424413 70.3327562 28.3099694 C 66.4240526 18.3537474 51.6151915 17.7432261 41.5811057 40.3975526 Z" fill="#605343" stroke="none"/></g><g transform="translate(54.8419187 60.8568847)"><path d="M 60.8349247 31.3985048 C 61.2063088 31.3985048 61.5976704 31.3985048 61.9898508 31.3318833 C 72.7976535 30.3551196 75.4584212 25.1383694 76.6646009 18.5341989 C 78.0055466 11.2858437 78.0875852 8.7663855 79.8310274 8.1003461 C 81.099432 7.6010369 81.4189076 5.9915446 81.3778064 4.0935352 C 81.336214 2.1955257 81.2746441 2.0065884 79.170789 1.2185857 C 77.5000515 0.5856809 68.2806201 -0.3130052 61.3608885 0.1085789 L 61.3608885 2.0622826 C 66.8158797 1.7402784 72.065529 2.4507321 73.591348 3.505221 C 77.0564538 5.9249231 76.0459549 17.5905697 73.1274453 23.3737793 C 71.0645275 27.3915176 65.7334947 29.4227702 60.8860146 29.511599 Z M 40.6427947 3.9713956 C 38.2605651 4.0378409 28.5048537 1.0077937 21.5646533 0.3639615 C 21.069147 0.3639615 20.532867 0.2749566 20.0383431 0.241822 L 20.0383431 2.1955257 C 25.6791902 2.4725868 31.5160456 3.8490799 33.516411 7.0902716 C 36.796316 12.4069541 30.8973995 25.4159593 25.5655479 28.3131159 C 23.682591 29.2361241 21.6326094 29.6982451 19.5639604 29.6670493 L 19.5639604 31.5098933 C 28.9070228 31.5098933 32.3614849 24.2724654 33.5062585 21.8531158 C 35.682491 17.3020525 35.2289046 11.0195337 40.5805698 11.0086063 C 45.9328901 10.997679 45.2212342 17.157882 47.1294086 21.7085928 C 48.16054 24.1616057 51.1926918 31.6983019 60.8860146 31.3985048 L 60.8860146 29.5671169 C 58.7084721 29.6732179 56.5379708 29.2206143 54.5541441 28.2464943 C 49.3981596 25.3715449 44.2415202 12.4069541 47.7999633 7.0682407 C 49.9550721 3.8490799 55.7609788 2.4394523 61.350736 2.1178005 L 61.350736 0.1640969 L 60.0924839 0.2640292 C 53.8426519 0.8743743 46.263173 3.8159453 40.6427947 3.9713956 Z M 20.0177106 0.241822 C 13.1697013 -0.1466275 4.0845446 0.7746183 2.4138072 1.3518289 C 0.2588621 2.1509351 0.1964735 2.3617271 0.0418939 4.2489855 C -0.1126858 6.1358913 0.1245874 7.756311 1.3622071 8.2445166 C 3.0638932 8.8996286 3.0118208 11.4301904 3.9402812 18.667442 C 4.775568 25.260509 7.1366739 30.4663317 17.893223 31.3875775 C 18.4398192 31.3875775 18.9243544 31.4540228 19.4915831 31.4653026 L 19.4915831 29.6226349 C 14.5517482 29.6226349 9.0551645 27.6580039 7.1988987 23.540157 C 4.5998647 17.7682272 4.239288 6.1135079 7.8591372 3.6715986 C 9.4163962 2.6171097 14.6031655 1.8846251 19.9554858 2.1509351 Z" fill="#4f4f4f" stroke="none"/></g><g transform="translate(75.9631611 117.8737218)"><path fill="#000000" d="M 0.0163627 0 C 7.1843085 6.2253329 14.2357328 9.7453141 19.0781111 9.7453141 C 23.9202924 9.7453141 30.9699328 6.2253381 38.1365027 0 L 38.0737833 1.2540004 C 38.0737833 1.2540004 25.7811 14.2406099 18.8613 14.2406099 C 11.9416056 14.2406099 0 1.3984004 0 1.3984004 Z" stroke="none" fill-opacity="0.2" stroke-opacity="1" stroke-width="1px"/></g></g><g transform="translate(493 108)"><g transform="translate(0 74.4469582)"><path d="M 46.0060775 0 C 20.5904509 10.7942672 12.965332 16.5470026 9.9520145 19.1337664 C 5.3105993 23.1142471 2.7411576 37.9577763 0 50.5530418 L 115 50.5530418 C 112.2591738 37.934867 109.6721628 23.1142471 105.0484275 19.1337664 C 102.034668 16.5470026 94.6939744 10.9433379 69.2783479 0.1490706 Z" fill="#29b6f6" fill-opacity="1" stroke="none"/></g><g transform="translate(29.479669 3.9283584)"><path fill="#f6c5a0" d="M 15.6855588 62.2303715 C 11.8063838 59.4480245 8.3958953 56.2647973 7.0952504 54.2410601 C 6.4916921 53.3018101 5.173856 49.6083728 4.0718365 44.556623 C 2.6665365 43.6824356 1.3514477 41.9313731 0.5965365 39.7096232 C -0.6443773 36.0576234 0.1125782 32.5577486 2.2930421 31.8622486 C 2.3167449 31.8546861 2.3404477 31.8474986 2.3642782 31.8406861 C 1.6772171 16.8749993 6.0597393 0 28.0293393 0 C 50.0223227 0 54.3992865 16.8952492 53.7035365 31.8674986 C 55.8238171 32.6212486 56.547231 36.0809984 55.3205004 39.6888107 C 54.5976615 41.8154981 53.3612838 43.5108106 52.0240254 44.4184355 C 50.9140838 49.5409353 49.5751004 53.2933101 48.9631088 54.2410601 C 47.6617245 56.2658059 44.2485377 59.4511977 40.3670504 62.2345312 L 40.3670504 76.2884966 C 33.5764921 84.3182463 22.4702393 84.0601213 15.6855588 76.2884966 Z" stroke="none" fill-opacity="1" stroke-opacity="1" stroke-width="1px"/></g><g transform="translate(30.9482567 0)"><path d="M 43.6049648 5.1041627 C 30.7818455 -4.6462888 10.98478 1.1580994 5.005328 9.3026024 C -2.4781307 19.4945921 0.168329 34.9748697 1.9385288 46.5836461 C 1.9385288 46.5836461 1.9385288 46.5491752 1.9385288 46.5319933 C 1.9385288 46.6467001 1.985712 46.7671342 2.0155468 46.8933491 C 2.0973164 47.0449355 2.1901358 47.190634 2.2936737 47.329267 C 2.5227389 47.3887347 2.7669425 47.3599376 2.9746813 47.2489776 C 3.0280525 47.2148814 3.0597658 47.1561631 3.0575558 47.0940726 C 3.1286069 46.0673853 3.0575558 44.0312997 3.0575558 44.0083905 C 2.9153431 42.4081157 2.5603087 40.8652211 2.3175416 39.3051981 C 3.5014317 31.9751508 7.0535442 30.4323632 8.9302653 21.5881114 C 9.3209911 21.0145774 9.7471871 20.4409365 10.1855381 19.8674025 C 10.6853267 19.2199488 11.241912 18.6155302 11.848885 18.0607305 C 12.1726481 17.8697488 12.4850298 17.6610499 12.7844831 17.4355437 C 19.6873781 14.9864495 26.79757 17.9230609 33.3155958 20.4983166 C 35.802163 21.5020947 38.5963603 22.6491625 41.3613858 22.4656745 C 42.4376496 22.4592513 43.3514793 21.6999813 43.5220903 20.6704036 C 46.6421503 29.7153789 49.2112604 33.913765 50.7269802 40.5497908 C 50.5200148 41.6969657 50.2949277 42.8440336 50.1943732 44.037027 C 50.1943732 44.037027 50.1291786 46.0960754 50.1943732 47.1227091 C 50.1921632 47.1847996 50.2234346 47.243625 50.2772478 47.2776142 C 50.4846551 47.3886812 50.7288586 47.4173712 50.9579238 47.3579036 C 51.0614617 47.2192705 51.1542812 47.073572 51.2360507 46.9219857 C 51.3380416 46.5083347 51.3932913 46.0853166 51.4017997 45.660211 C 51.4787073 45.08657 51.5855602 44.4614903 51.6684347 43.8305227 C 53.6279199 36.6497066 57.2630174 8.1898449 43.6049648 5.1041627 Z M 24.1927686 14.7111639 L 23.5533088 14.5276223 C 23.8730939 14.6022379 24.1869121 14.6825273 24.5065868 14.7684905 Z" fill="#605343" stroke="none"/></g><g transform="translate(45.1549487 66.1513554)"><path fill="#000000" d="M 24.6962391 0.0083296 L 24.7153458 0.0191252 L 24.7154096 1.3440626 C 24.7154096 1.3440626 18.3984596 8.6109998 12.3541874 8.3643123 C 6.3095319 8.1177498 0.0102791 0.8565626 0.0102791 0.8565626 L 0 0 C 4.2809163 3.0719337 9.1346341 5.6571249 12.3540596 5.6571249 C 15.5705415 5.6571249 20.4182568 3.0766055 24.6962391 0.0083296 Z" stroke="none" fill-opacity="0.2" stroke-width="1px"/></g></g><g transform="translate(843 108)"><g transform="translate(21.3359852 5.9116431)"><path d="M 11.4352929 4.2224409 C 12.7899461 -0.5486013 23.5830145 -4.7610575 27.9835693 12.2133879 C 32.3844736 29.1880785 30.1684675 35.1354144 32.5965205 41.1286246 C 35.0245735 47.1222028 29.2942985 93.4982253 15.7426403 93.3472329 C 1.2232562 93.1828707 -1.8980269 48.8242102 0.9611104 39.834211 C 3.8198981 30.8442117 1.3231046 4.2090712 11.4352929 4.2224409 Z" fill="#605343" stroke="none"/></g><g transform="translate(58.7826358 5.9116431)"><path d="M 21.7043145 4.2224409 C 20.3496613 -0.5486013 9.5570589 -4.7610575 5.1560381 12.2133879 C 0.7554833 29.1880785 2.9714894 35.1354144 0.5430869 41.1286246 C -1.8849661 47.1222028 3.8453089 93.4982253 17.3969671 93.3472329 C 31.8977097 93.1828707 35.0562758 48.8242102 32.1722055 39.8407118 C 29.2886013 30.8572135 31.8165027 4.2090712 21.7043145 4.2224409 Z" fill="#605343" stroke="none"/></g><g transform="translate(0 79.7672761)"><path d="M 68.3706636 0 C 68.1458007 0.3679751 46.1796107 0.7360728 45.9361063 1.1040479 C 39.0387581 11.4674529 24.1320972 13.3734411 12.2719205 16.166372 C 0.4116272 18.9593029 0.0186415 34.7179585 0 45.2327239 L 115 45.2327239 C 115 34.7179585 114.7627871 19.0052998 102.72773 16.1728729 C 90.6926729 13.340446 74.9126586 10.8366209 68.3706636 0 Z" fill="#8bc34a" stroke="none"/></g><g transform="translate(25.0305187 1.6169987)"><path fill="#f6dcb9" d="M 43.9958036 68.2015543 L 43.9958036 83.1054493 C 37.0856452 95.8609512 26.723698 95.5389511 20.9494841 83.1054493 L 20.9494841 68.176729 C 16.9031043 64.7399018 12.7952044 59.9098335 9.6532897 54.0777577 C 9.3127619 54.6936328 8.8569147 55.1593204 8.290348 55.4255079 C 5.9683702 56.5164455 2.7348897 53.8418827 1.0245202 49.4453195 C -0.6858492 45.0488814 -0.2054687 40.5801308 2.0979175 39.5155056 C 2.8944841 39.1382556 3.8045813 39.2113806 4.7250925 39.6503181 C 2.2030147 22.1150031 11.3834647 0 32.4850063 0 C 53.585973 0 62.7665508 22.1137531 60.2451758 39.6488806 C 61.163323 39.2118181 62.0711202 39.1391306 62.8659619 39.5155056 C 65.169348 40.5801308 65.6560536 45.0488189 63.9456841 49.4453195 C 62.2353147 53.8418827 59.0018341 56.5164455 56.6797925 55.4255079 C 56.1139286 55.1596954 55.6589758 54.6945078 55.319023 54.0793827 C 52.1710069 59.9247671 48.0517136 64.7634869 43.9958036 68.2015543 Z" stroke="none" fill-opacity="1" stroke-opacity="1" stroke-width="1px"/></g><g transform="translate(25.7354927 0)"><path d="M 60.132278 23.3823959 C 57.8914554 14.0769193 46.5740953 -0.0784689 35.9624318 0.1778871 C 34.2454348 -0.0091669 32.5169034 -0.0489082 30.7937315 0.0596444 C 29.070909 -0.0489082 27.3422611 -0.0091669 25.6253806 0.1778871 C 15.0137172 -0.0850925 3.7025321 14.0769193 1.4555345 23.3823959 C -0.3484949 30.8609988 -1.1600985 38.2344836 3.1720654 45.9034523 C 3.9523279 48.216789 4.8699549 49.8465506 5.7500658 50.5037541 C 4.7763979 44.5891679 4.5768176 40.3635874 4.9325203 37.1368139 C 5.7437743 35.8620255 7.2607249 35.4676789 9.8826493 36.6112228 C 17.3108137 39.8971176 19.5827443 36.2234997 25.1698294 23.8884843 C 26.8863604 20.1031246 28.2032646 15.6409361 30.78744 15.6409361 C 33.3720814 15.6409361 34.6951606 20.1031246 36.4055165 23.8884843 C 42.0235931 36.2234997 44.2645322 39.8641225 51.6926967 36.6112228 C 54.3146211 35.461178 55.8315716 35.8620255 56.6428256 37.1368139 C 56.9985284 40.3635874 56.798948 44.6220404 55.8252801 50.5037541 C 56.7053911 49.8465506 57.623018 48.1904174 58.4032806 45.9034523 C 62.7479109 38.2541089 61.9361909 30.8676224 60.132278 23.3823959 Z" fill="#605343" stroke="none"/></g><g transform="translate(45.9800028 69.7937277)"><path fill="#000000" d="M 23.0702372 0.0045354 L 23.0463194 0.7469684 C 23.0463194 0.7469684 15.6056917 8.4358445 11.4172 8.4358445 C 7.2287083 8.4358445 0 0.8324684 0 0.8324684 L 0 0 C 4.3378516 3.6843911 8.6050008 5.7675941 11.5355222 5.7675941 C 14.4674099 5.7675941 18.7337624 3.6860918 23.0702372 0.0045354 Z" stroke="none" fill-opacity="0.2" stroke-width="1px"/></g></g><g transform="translate(493 478)"><g transform="translate(0 74.4446037)"><path d="M 46.0082728 0 C 20.5917672 10.7948454 12.9658379 16.5477853 9.9523741 19.1346319 C 5.3108597 23.1153137 2.7413072 37.9538659 0 50.5553963 L 115 50.5553963 C 112.2647094 37.9366524 109.6714666 23.1153137 105.0476259 19.1346319 C 102.0341621 16.5477853 94.6926105 10.9439377 69.2761989 0.1490923 Z" fill="#263238" fill-opacity="1" stroke="none"/></g><g transform="translate(29.477405 3.9228632)"><path d="M 15.6845325 62.2271818 C 11.8062094 59.4461273 8.4001 56.265883 7.1115061 54.2435295 C 6.5075644 53.3037735 5.1884825 49.6066398 4.0860478 44.550421 C 2.675413 43.6791406 1.3540311 41.923775 0.5965964 39.694507 C -0.6444133 36.0424343 0.1125422 32.5422823 2.2931978 31.8467946 C 2.3217561 31.8376788 2.3504422 31.8291117 2.3791922 31.8210324 C 1.6971144 16.8599978 6.0860575 0 28.0461061 0 C 50.03647 0 54.4088978 16.9008819 53.7127005 31.8731666 C 55.8369422 32.6233799 56.5623367 36.0858489 55.3346478 39.6965497 C 54.6107228 41.8263055 53.3719172 43.5233784 52.0324547 44.4301161 C 50.9245894 49.543835 49.5897269 53.2879808 48.9812811 54.2320661 C 47.6779288 56.2653905 44.2562068 59.4603198 40.3672061 62.2482546 L 40.3672061 76.2977339 C 33.5763603 84.3278548 22.4695644 84.0697451 15.6845325 76.2977339 Z" fill="#f6d1af" fill-opacity="1" stroke="none" stroke-opacity="1" stroke-width="1px"/></g><g transform="translate(21.5761189 0)"><path d="M 16.1608654 7.307421 C 9.03155 9.5454497 3.3344049 10.0302252 1.6323825 7.9321614 C 1.6323825 7.9321614 -4.4835731 20.361733 6.9609075 26.8603297 C 7.7569073 27.3123395 8.5605555 27.7079361 9.3682003 28.0514295 C 9.3878116 34.4424693 10.4496738 40.9675314 11.3064061 46.5858454 C 11.3064061 46.5858454 11.3064061 46.5513332 11.3064061 46.5341076 C 11.3064061 46.6488637 11.3539714 46.7692905 11.3833922 46.89551 C 11.4655533 47.0470648 11.5584477 47.1927051 11.6618519 47.3314855 C 11.8938644 47.3958758 12.14252 47.369016 12.3543116 47.2568209 C 12.4082019 47.222827 12.4395075 47.164199 12.4372394 47.1019734 C 12.5083158 46.0752662 12.4372394 44.0390774 12.4372394 44.0161201 C 12.29547 42.4159069 11.9399283 40.8729803 11.6971825 39.3127671 C 12.3941787 34.9984603 13.9115091 32.6888703 15.4247219 29.7154738 C 24.1858598 30.9188423 32.3421574 27.2214896 35.1838561 24.1816715 C 36.5259837 22.7460637 38.1701721 20.9929029 39.8820009 19.3939222 C 40.8268906 19.7568128 41.7621099 20.1287962 42.685338 20.4935317 C 45.1717019 21.4802389 45.544813 17.1954529 48.2919714 16.989081 C 49.4758964 16.9029224 51.8914714 20.7518244 52.880088 20.6427085 C 62.66087 19.5242941 58.5699686 33.8867007 60.085413 40.5230718 C 59.8783172 41.6702668 59.6533325 42.8173703 59.5527394 44.0104799 C 59.5527394 44.0104799 59.4876047 46.0696259 59.5527394 47.0962417 C 59.5505991 47.1583453 59.5819047 47.2170953 59.6356672 47.2511807 C 59.8434339 47.3621867 60.0872019 47.3909672 60.3163714 47.3314855 C 60.4198075 47.192888 60.51267 47.0471563 60.5948311 46.89551 C 60.6968297 46.481943 60.7521255 46.0588028 60.7605908 45.6337418 C 60.8374811 45.0600529 60.9440797 44.4348091 61.0269116 43.803925 C 62.9982672 36.6456638 66.633513 8.1846309 52.9751227 5.1044179 C 41.2285532 -3.8272381 23.6306943 0.2925479 16.1608654 7.307421 Z" fill="#343434" fill-opacity="1" stroke="none" stroke-opacity="1" stroke-width="1px"/></g><g transform="translate(45.1568559 66.1464007)"><path d="M 24.6877232 0.038619 L 24.6877552 1.3521249 C 24.6877552 1.3521249 18.328958 8.6250508 12.3197288 8.366941 C 6.3104677 8.1088313 0.0050816 0.8588628 0.0050816 0.8588628 L 0 0 C 4.2845986 3.0730972 9.1465269 5.6597158 12.3666552 5.6597158 C 15.5753426 5.6597158 20.4073648 3.0918458 24.6877232 0.038619 Z" fill="#000000" fill-opacity="0.2" stroke="none"/></g></g><g transform="translate(843 478)"><g transform="translate(0 74.519598)"><path d="M 46.0012154 0 C 20.5882749 10.7787569 12.9639618 16.5232262 9.9509627 19.1062731 C 5.310038 23.0810342 2.740868 37.9032347 0 50.480402 L 115 50.480402 C 112.2592425 37.8804118 109.6722839 23.0810342 105.0491478 19.1062731 C 102.0361487 16.5232262 94.6956785 10.9277203 69.2828485 0.1489099 Z" fill="#ffca28" fill-opacity="1" stroke="none"/></g><g transform="translate(29.48253 4.1081162)"><path fill="#ffdbba" d="M 15.6841034 62.1284512 C 11.8126316 59.3530898 8.4108647 56.1809677 7.1124506 54.1631848 C 6.5098506 53.2267474 5.195145 49.5482476 4.0942117 44.5153728 C 2.6805422 43.6471854 1.3554867 41.8918729 0.5965506 39.661373 C -0.6442355 36.0146232 0.1122728 32.5197484 2.2929922 31.8252484 C 2.3225728 31.8158109 2.3522811 31.8069984 2.3820534 31.7986859 C 1.6940978 16.8536242 6.0750867 0 28.04392 0 C 50.0243811 0 54.3961061 16.8658117 53.7022089 31.8147484 C 55.8294534 32.5604984 56.5566367 36.0201857 55.328245 39.628123 C 54.6039367 41.7557479 53.3644922 43.4509979 52.0244867 44.3560603 C 50.9167811 49.4704976 49.5818228 53.2168724 48.9758367 54.1631848 C 47.6719911 56.1891717 44.2477267 59.3789038 40.3566506 62.1622841 L 40.3566506 76.1788712 C 33.5727367 84.1971834 22.4676339 83.9393084 15.6841034 76.1788712 Z" stroke="none" fill-opacity="1" stroke-opacity="1" stroke-width="1px"/></g><g transform="translate(29.5933986 0)"><path fill="#755a48" d="M 53.598371 35.7663648 C 53.4770486 38.523476 53.1822608 41.2175036 52.7924737 43.7311768 C 58.2108903 34.4997397 59.4378126 22.9647403 57.5725126 15.8719906 C 56.2349987 10.7860534 53.1092987 7.0404286 47.4617764 6.1699286 C 34.2788792 -2.5470085 14.685307 -2.4382585 5.3796987 9.136616 C -2.0436152 18.334678 -0.6408069 34.7491147 2.774757 44.9379892 C 3.042707 45.7372392 3.3472014 46.4934891 3.6870903 47.2084891 C 3.1016855 44.2819128 2.6083811 40.9767163 2.3658161 37.5306707 C 2.8491889 29.738436 5.4058306 24.2256863 9.6437722 19.8353115 C 9.7217167 19.924624 9.8053472 20.0105615 9.8942167 20.0931865 C 11.6912833 21.7646864 15.6155944 22.0929989 17.5502778 22.2292489 C 19.8907194 22.3475614 22.2341639 22.0604989 24.4700833 21.3816239 C 25.4559528 21.1085615 26.5354833 20.812249 27.6302194 20.4584365 C 33.6257444 22.9516239 49.486225 11.3739369 53.5983694 35.7663732 Z" stroke="none"/></g><g transform="translate(34.4950584 34.781628)"><path fill="#4f4f4f" d="M 11.3452194 0.2183617 C 11.6136805 0.2348617 12.0209721 0.2195492 12.3052777 0.2195492 C 16.2773138 0.5517367 21.8535999 2.1095491 23.2148166 2.0752366 C 26.429386 1.9950491 30.7626499 0.4829242 34.3141055 0.1393617 L 34.9841082 0.0621117 C 38.9501388 -0.1795133 44.2767471 0.3397992 45.2299694 0.6606117 C 46.4315916 1.0671742 46.466986 1.1702992 46.4909444 2.1382366 C 46.5144555 3.1061116 46.337036 3.942299 45.6088944 4.194299 C 44.6145277 4.5322365 44.5669944 5.8322989 43.8035221 9.5550488 C 43.1107749 12.9456736 41.5893888 15.6317985 35.4152944 16.1299859 C 35.1843999 16.1644234 34.8774777 16.1558609 34.6646638 16.1558609 C 29.1376999 16.3247984 27.500036 12.4231111 26.9088721 11.1644862 C 25.8198221 8.8276738 26.2282638 5.6662365 23.1677305 5.671924 C 20.107261 5.677674 20.3675444 8.9021113 19.124586 11.2388612 C 18.4616749 12.4817361 16.4783721 16.1987984 11.0779721 16.1973609 C 10.8133444 16.1929859 10.535236 16.1586109 10.2214777 16.1586109 C 4.0768999 15.6890485 2.7271194 13.0143611 2.2480166 9.6237988 C 1.7150555 5.9067364 1.7445082 4.606674 0.7736527 4.268799 C 0.0695332 4.0224865 -0.060864 3.1920491 0.0219999 2.2184241 C 0.1048638 1.2447367 0.1465194 1.1416742 1.3777221 0.7292992 C 2.3367582 0.4314867 7.4228888 0.0172992 11.3452194 0.2183617 Z M 11.3452194 1.1558617 C 14.5714805 1.2990492 17.9998221 2.0064866 19.1305277 3.6730491 C 21.0069444 6.4051114 17.6326527 13.0887986 14.5843221 14.5550485 C 13.5073471 15.0310485 12.2098916 15.2344235 11.0257749 15.218361 C 8.2020138 15.218361 5.172211 14.239986 4.1126138 12.1266111 C 2.6265582 9.1598613 2.4196221 3.1748616 4.4912194 1.9148616 C 5.3850888 1.3707367 8.2550416 1.0168617 11.3452194 1.1558617 Z M 34.9841082 1.1557992 C 38.0981166 0.9897992 41.1690638 1.3191742 42.0393582 1.8632991 C 44.0222777 3.1061116 43.4422305 9.0968613 41.7727499 12.0693611 C 40.5890166 14.1311735 37.5461805 15.179361 34.7700805 15.2247985 C 33.5255249 15.2490485 32.286336 15.0154235 31.153011 14.5149235 C 28.1934221 13.0429236 25.2334499 6.3762989 27.2936749 3.6329241 C 28.5308194 1.9777991 31.776311 1.3222367 34.9841082 1.1557992 Z" stroke="none"/></g><g transform="translate(45.1626153 66.2336867)"><path fill="#000000" d="M 24.6902342 0.0269329 L 24.6826347 1.3443639 C 24.6826347 1.3443639 18.3368708 8.612301 12.3226903 8.354551 C 6.3080625 8.096801 0.0040819 0.8574889 0.0040819 0.8574889 L 0 0 C 4.2831615 3.0710529 9.1420242 5.6570512 12.3638347 5.6570512 C 15.5762895 5.6570512 20.4161996 3.0861572 24.6902342 0.0269329 Z" stroke="none" fill-opacity="0.2" stroke-width="1px"/></g></g><g transform="translate(256.3905741 233)"><path fill="none" d="M 0 128.0556 L 294.1094 128.0556 L 294.1094055 11.25" stroke-width="3" fill-opacity="0.61"/><use class="EndArrow.cls" fill="#000000" x="117.6437622" y="0" xlink:href="#thick.end" transform="scale(2.5)"/></g><g transform="translate(256.3905741 361.0555556)"><path fill="none" d="M 1e-13 1e-13 L 294.1094 0 L 294.1094055 105.7069016" stroke-width="3" fill-opacity="0.61"/><use class="EndArrow.cls" fill="#000000" x="117.6437622" y="46.7827606" xlink:href="#thick.end" transform="scale(2.5) rotate(180 117.6437622 46.7827606)"/></g><g transform="translate(256.3905741 233)"><path fill="none" d="M 0 128.0556 L 644.1094 128.0556 L 644.109375 11.25" stroke-width="3" fill-opacity="0.61"/><use class="EndArrow.cls" fill="#000000" x="257.64375" y="0" xlink:href="#thick.end" transform="scale(2.5)"/></g><g transform="translate(256.3905741 361.0555556)"><path fill="none" d="M 1e-13 1e-13 L 644.1094 0 L 644.109375 105.7133026" stroke-width="3" fill-opacity="0.61"/><use class="EndArrow.cls" fill="#000000" x="257.64375" y="46.785321" xlink:href="#thick.end" transform="scale(2.5) rotate(180 257.64375 46.785321)"/></g><g transform="translate(0.5 0.5)"><rect x="0" y="0" width="1020" height="720" stroke-width="0" fill="none"/></g></svg>