<svg xmlns="http://www.w3.org/2000/svg" xmlns:xlink="http://www.w3.org/1999/xlink" xmlns:v="http://vecta.io" width="64" height="63" viewBox="0 0 64 63" ><style><![CDATA[svg {stroke:#000;stroke-linecap:round;stroke-linejoin:round;fill:#fff;fill-rule:evenodd;font-family:Arial;font-size:14px;text-anchor:middle}svg text {stroke:none}]]></style><g transform="translate(1.5 1.5)" fill="#007fff" stroke-width="3"><g><path d="M 24.5798416 49.0566335 C 11.0924339 49.0566335 0 38.1132016 0 24.5283086 C 0 11.069169 10.9663836 0 24.5798416 0 C 38.1932833 0 49.1596668 10.9433992 49.1596668 24.5283086 C 49.0336164 38.1132016 38.0672329 49.0566335 24.5798416 49.0566335 L 24.5798416 49.0566335 Z M 24.5798416 3.6477997 C 12.9831897 3.6477997 3.5294108 13.0817646 3.5294108 24.6540784 C 3.5294108 36.2264086 12.9831897 45.6603734 24.5798416 45.6603734 C 36.1764771 45.6603734 45.630256 36.2264086 45.630256 24.6540784 C 45.5042056 13.0817646 36.0504267 3.6477997 24.5798416 3.6477997 L 24.5798416 3.6477997 Z" stroke="none" fill="#007fff" fill-opacity="1" stroke-width="3"/></g><g transform="translate(40.2100894 40.2515833)"><path d="M 17.1428525 19.7484167 L 0 2.7672964 L 2.7731085 0 L 19.7899106 17.1069065 L 17.1428525 19.7484167" stroke="none" fill="#007fff" fill-opacity="1" stroke-width="3"/></g></g></svg>