<svg xmlns="http://www.w3.org/2000/svg" xmlns:xlink="http://www.w3.org/1999/xlink" xmlns:v="http://vecta.io" width="61" height="61" viewBox="0 0 61 61" ><style><![CDATA[svg {stroke:#000;stroke-linecap:round;stroke-linejoin:round;fill:#fff;fill-rule:evenodd;font-family:Arial;font-size:14px;text-anchor:middle}svg text {stroke:none}]]></style><g transform="translate(0.5 0.5)"><path d="M 55.2369952 4.762108 C 49.6868905 -0.7886718 45.522211 0.0444024 45.522211 0.0444024 L 26.0911401 19.4744731 L 3.8839136 41.6807026 L 0 60 L 18.3172093 56.1146056 L 40.5244828 33.9076015 L 59.9555067 14.4790683 C 59.9555067 14.479843 60.7894004 10.3144371 55.2369952 4.762108 Z M 17.2271988 53.912285 L 10.9832548 55.2568943 C 10.3793732 54.1284442 9.654781 53.0015199 8.3255091 51.6730381 C 6.9970354 50.3445797 5.8693234 49.619949 4.7423626 49.014572 L 6.0885368 42.7714751 L 7.8931859 40.9653211 C 7.8931859 40.9653211 11.2917218 41.0330116 15.1271351 44.871491 C 18.9641448 48.707658 19.0333504 52.1076569 19.0333504 52.1076569 L 17.2271988 53.912285 Z" stroke="none" fill="#007fff"/></g></svg>